<svg width="320" height="327" viewBox="0 0 320 327" fill="none" xmlns="http://www.w3.org/2000/svg">
<circle cx="160" cy="160" r="160" fill="#C34129"/>
<path d="M176.357 132.598H174.954V94.2149C174.954 88.3231 172.61 82.6727 168.437 78.5066C164.264 74.3405 158.604 72 152.703 72H71.2512C65.3498 72 59.6901 74.3405 55.5172 78.5066C51.3443 82.6726 49 88.3231 49 94.2148V304.785C49 310.677 51.3443 316.327 55.5172 320.493C59.6901 324.659 65.3497 327 71.2511 327H152.703C158.604 327 164.264 324.659 168.437 320.493C172.61 316.327 174.954 310.677 174.954 304.785V159.919H176.357L176.357 132.598Z" fill="#3F3D56"/>
<path d="M170.218 94.3697V304.63C170.219 308.635 168.768 312.504 166.135 315.524C163.501 318.545 159.862 320.512 155.889 321.063C155.131 321.169 154.366 321.221 153.601 321.221H71.7549C70.9894 321.221 70.2248 321.169 69.4667 321.063C65.4945 320.511 61.8562 318.544 59.2232 315.523C56.5902 312.503 55.1402 308.634 55.1408 304.63V94.3697C55.1409 89.9697 56.8917 85.7498 60.0081 82.6385C63.1245 79.5272 67.3512 77.7793 71.7584 77.7792H81.6869C81.1972 78.976 81.01 80.2747 81.1418 81.5608C81.2737 82.8469 81.7205 84.0809 82.4428 85.1539C83.1652 86.2269 84.141 87.1059 85.284 87.7134C86.4271 88.3209 87.7023 88.6383 88.9973 88.6375H135.66C136.955 88.6382 138.23 88.3207 139.373 87.7131C140.516 87.1054 141.491 86.2263 142.213 85.1533C142.935 84.0802 143.382 82.8463 143.513 81.5603C143.645 80.2742 143.457 78.9757 142.967 77.7792H153.601C158.008 77.7793 162.235 79.5272 165.351 82.6385C168.468 85.7498 170.218 89.9697 170.218 94.3697Z" fill="white"/>
<path d="M170.218 251.337V304.63C170.219 308.635 168.768 312.504 166.135 315.524C163.501 318.545 159.862 320.512 155.889 321.063H69.4667C65.4945 320.511 61.8562 318.544 59.2232 315.523C56.5902 312.503 55.1402 308.634 55.1408 304.63V251.337H170.218Z" fill="#E6E6E6"/>
<path d="M112.68 297.174C118.75 297.174 123.671 292.261 123.671 286.2C123.671 280.139 118.75 275.226 112.68 275.226C106.609 275.226 101.688 280.139 101.688 286.2C101.688 292.261 106.609 297.174 112.68 297.174Z" fill="white"/>
<path d="M119.275 286.2H113.339V280.274H112.02V286.2H106.084V287.517H112.02V293.443H113.339V287.517H119.275V286.2Z" fill="#E6E6E6"/>
<path d="M132.197 217.211V227.068L127.127 232.928C127.127 232.928 124.993 232.129 124.993 226.801L124.192 219.076L132.197 217.211Z" fill="#FFB9B9"/>
<path d="M127.127 227.068C127.127 227.068 135.399 221.474 135.666 219.609C135.933 217.744 143.599 209.35 145.805 214.547C147.887 219.452 139.464 223.657 139.464 223.657C139.464 223.657 133.531 234.527 129.529 234.26C125.527 233.994 125.527 228.932 127.127 227.068Z" fill="#FFB9B9"/>
<path d="M122.325 287.006L121.524 291.801L125.794 290.735V287.006H122.325Z" fill="#FFB9B9"/>
<path d="M123.125 289.67C123.125 289.67 128.059 286.751 128.261 288.077C128.462 289.403 130.596 294.465 131.664 294.997C132.731 295.53 134.065 301.391 131.664 301.124C129.804 300.918 122.982 297.356 120 295.76C119.633 295.563 119.356 295.232 119.225 294.837C119.095 294.441 119.121 294.011 119.299 293.634C119.474 293.311 119.595 292.962 119.656 292.6C119.656 292.067 123.125 289.67 123.125 289.67Z" fill="#2F2E41"/>
<path d="M120.724 235.592C120.724 235.592 140.202 244.65 138.334 251.576C136.466 258.502 129.529 287.805 129.529 287.805C129.529 287.805 121.791 289.67 121.257 287.805C120.724 285.94 126.327 256.903 125.793 255.838C125.26 254.772 115.387 247.846 115.387 247.846L95.1084 239.322L103.647 231.33L120.724 235.592Z" fill="#2F2E41"/>
<path d="M135.399 288.604L137.801 294.731L133.531 296.596L130.863 291.801L135.399 288.604Z" fill="#FFB9B9"/>
<path d="M120.991 191.904C120.991 191.904 118.589 195.101 120.457 196.699C122.325 198.297 120.991 204.158 120.991 204.158L118.589 210.818L108.983 208.953V198.031L109.517 192.703C109.517 192.703 114.32 188.175 114.854 184.712C115.387 181.248 120.991 191.904 120.991 191.904Z" fill="#FFB9B9"/>
<path d="M104.981 233.461C104.981 233.461 117.522 247.313 117.522 247.846C117.522 248.379 124.192 259.301 124.192 259.301L137.267 288.338C137.267 288.338 132.197 295.264 130.063 294.731C127.928 294.198 112.719 263.297 112.719 263.297C112.719 263.297 110.051 256.371 102.846 254.772C95.642 253.174 90.0386 247.58 92.7069 241.186C95.3751 234.793 104.981 233.461 104.981 233.461Z" fill="#2F2E41"/>
<path d="M120.99 193.769C125.706 193.769 129.529 189.952 129.529 185.244C129.529 180.536 125.706 176.72 120.99 176.72C116.275 176.72 112.452 180.536 112.452 185.244C112.452 189.952 116.275 193.769 120.99 193.769Z" fill="#FFB9B9"/>
<path d="M120.724 199.097C120.724 199.097 119.656 205.224 118.589 205.756C117.522 206.289 116.721 208.154 114.32 205.49C111.918 202.826 109.784 197.498 109.784 197.498L101.512 207.621L100.712 235.592C100.712 235.592 110.051 233.195 112.986 235.592C115.921 237.99 122.325 237.723 122.325 237.723L120.99 232.396L122.058 223.338L121.791 215.08L121.524 209.219L120.724 199.097Z" fill="#183A5A"/>
<path d="M119.784 194.613C119.784 194.613 123.392 196.433 123.659 197.498C123.926 198.564 128.728 200.695 128.728 200.695C128.728 200.695 130.596 202.56 130.596 203.625C130.596 204.691 124.192 216.945 124.192 216.945C124.192 216.945 122.858 225.203 123.392 226.801C123.926 228.4 122.325 234.527 122.325 234.527L125.527 238.256H122.591C122.591 238.256 119.39 236.658 119.39 235.859C119.39 235.059 119.923 229.465 120.19 227.068C120.457 224.67 120.457 216.146 119.923 213.215C119.39 210.285 119.656 202.56 119.656 200.695C119.656 198.83 119.784 194.613 119.784 194.613Z" fill="#3F3D56"/>
<path d="M111.518 190.568C111.518 190.568 110.317 190.839 106.849 191.904C103.38 192.97 98.0435 194.568 96.1757 196.699C94.8647 198.275 93.7034 199.97 92.707 201.761L93.7743 220.941C93.7743 220.941 91.6397 224.937 91.9065 227.068C92.1733 229.199 94.3079 229.465 92.707 233.994C91.106 238.523 87.9041 242.518 90.8392 243.051C93.7743 243.584 101.512 241.719 104.981 242.785C108.45 243.85 112.452 238.789 112.452 238.789C112.452 238.789 107.116 239.322 107.916 237.191C108.717 235.059 117.522 211.084 115.654 205.756C113.786 200.429 111.518 190.568 111.518 190.568Z" fill="#3F3D56"/>
<path d="M129.262 202.293L130.596 203.359C130.596 203.359 134.332 216.678 133.264 218.01C132.197 219.342 123.659 222.273 123.125 220.408C122.591 218.543 129.262 202.293 129.262 202.293Z" fill="#3F3D56"/>
<path d="M89.7719 211.617C89.7719 211.617 85.7695 223.072 85.7695 226.269C85.7695 229.465 86.3031 248.113 86.3031 248.113C86.3031 248.113 88.9714 259.306 94.5747 256.109C100.178 252.912 92.1733 247.58 92.1733 247.58C92.1733 247.58 92.4401 226.535 94.5747 223.605C96.7093 220.674 97.5098 216.412 97.5098 216.412L89.7719 211.617Z" fill="#FFB9B9"/>
<path d="M133.531 294.465C133.531 294.465 137.534 292.333 138.334 293.932C139.135 295.53 143.404 304.321 142.87 305.387C142.337 306.452 139.401 310.714 135.933 309.649C132.464 308.583 132.197 302.989 132.197 302.989L131.93 296.596L133.531 294.465Z" fill="#2F2E41"/>
<path d="M122.662 183.185C122.074 183.462 121.377 183.627 121.007 184.161C120.733 184.556 120.706 185.07 120.506 185.508C120.288 185.941 119.913 186.275 119.456 186.442C119 186.608 118.498 186.595 118.051 186.404C117.942 185.874 117.633 185.405 117.188 185.095C116.963 184.948 116.696 184.876 116.428 184.891C116.159 184.905 115.902 185.006 115.695 185.177C115.145 185.701 115.34 186.613 115.083 187.327C114.842 187.83 114.511 188.284 114.105 188.666C113.521 189.339 113.056 190.128 112.353 190.675C111.649 191.222 110.583 191.46 109.884 190.906C109.296 190.441 109.175 189.583 109.317 188.848C109.46 188.114 109.814 187.437 110.013 186.715C110.662 184.371 109.628 181.867 109.948 179.456C110.358 176.366 112.988 173.926 115.924 172.866C117.146 172.37 118.484 172.228 119.783 172.458C121.125 172.758 122.272 173.611 123.558 174.099C124.934 174.621 126.429 174.712 127.868 175.017C129.307 175.323 130.788 175.913 131.623 177.122C132.206 177.965 132.406 179.013 132.889 179.917C133.445 180.949 134.345 181.754 135.433 182.192L133.912 182.106C134.167 182.784 134.583 183.39 135.124 183.872C134.41 184.017 133.669 183.919 133.018 183.594C133.029 183.906 133.105 184.213 133.24 184.494C133.375 184.776 133.567 185.027 133.803 185.232C132.632 185.197 131.398 185.143 130.409 184.517C129.924 184.211 129.529 183.784 129.073 183.436C128.101 182.695 126.895 182.343 125.72 182.007C125.103 181.83 124.36 181.584 123.802 181.98C123.337 182.31 123.264 182.903 122.662 183.185Z" fill="#2F2E41"/>
<path d="M96.7093 198.564L92.7069 201.761L87.3704 214.015C87.3704 214.015 94.8416 219.875 96.7093 219.076C98.5771 218.277 101.779 204.158 101.779 204.158L96.7093 198.564Z" fill="#3F3D56"/>
<path d="M148.179 217.002C148.234 216.936 148.233 216.845 148.177 216.799C148.121 216.752 148.031 216.767 147.977 216.833C147.922 216.899 147.923 216.99 147.979 217.036C148.035 217.083 148.125 217.068 148.179 217.002Z" fill="#F2F2F2"/>
<path d="M144.324 193.438C143.865 193.438 143.424 193.621 143.099 193.945C142.775 194.269 142.592 194.709 142.591 195.168V224.129C142.592 224.588 142.775 225.027 143.099 225.352C143.424 225.676 143.865 225.858 144.324 225.859H261.268C261.727 225.858 262.167 225.676 262.492 225.352C262.817 225.027 263 224.588 263 224.129V195.168C263 194.709 262.817 194.269 262.492 193.945C262.167 193.621 261.727 193.438 261.268 193.438H144.324Z" fill="white"/>
<path d="M144.324 193.438C143.865 193.438 143.424 193.621 143.099 193.945C142.775 194.269 142.592 194.709 142.591 195.168V224.129C142.592 224.588 142.775 225.027 143.099 225.352C143.424 225.676 143.865 225.858 144.324 225.859H261.268C261.727 225.858 262.167 225.676 262.492 225.352C262.817 225.027 263 224.588 263 224.129V195.168C263 194.709 262.817 194.269 262.492 193.945C262.167 193.621 261.727 193.438 261.268 193.438H144.324Z" fill="#E6E6E6"/>
<path d="M144.54 223.913H261.051V195.384H144.54V223.913Z" fill="white"/>
<path d="M159.483 218.729C164.507 218.729 168.579 214.664 168.579 209.648C168.579 204.633 164.507 200.568 159.483 200.568C154.46 200.568 150.388 204.633 150.388 209.648C150.388 214.664 154.46 218.729 159.483 218.729Z" fill="#183A5A"/>
<path d="M180.49 203.594C180.088 203.595 179.703 203.755 179.419 204.039C179.136 204.322 178.976 204.707 178.976 205.108C178.976 205.509 179.136 205.894 179.419 206.177C179.703 206.461 180.088 206.621 180.49 206.621H251.955C252.357 206.621 252.743 206.462 253.027 206.178C253.312 205.894 253.471 205.509 253.471 205.108C253.471 204.707 253.312 204.322 253.027 204.038C252.743 203.754 252.357 203.594 251.955 203.594H180.49Z" fill="#E6E6E6"/>
<path d="M180.49 212.675C180.088 212.676 179.703 212.836 179.419 213.119C179.136 213.403 178.976 213.788 178.976 214.189C178.976 214.59 179.136 214.974 179.419 215.258C179.703 215.542 180.088 215.702 180.49 215.702H251.955C252.357 215.702 252.743 215.543 253.027 215.259C253.312 214.975 253.471 214.59 253.471 214.189C253.471 213.787 253.312 213.402 253.027 213.119C252.743 212.835 252.357 212.675 251.955 212.675H180.49Z" fill="#E6E6E6"/>
<path d="M69.4679 105.929C69.1289 105.929 68.8039 106.064 68.5642 106.303C68.3245 106.542 68.1897 106.867 68.1893 107.205V128.578C68.1897 128.916 68.3245 129.241 68.5642 129.48C68.8039 129.719 69.1289 129.854 69.4679 129.854H155.768C156.107 129.854 156.432 129.719 156.672 129.48C156.912 129.241 157.046 128.916 157.047 128.578V107.205C157.046 106.867 156.912 106.542 156.672 106.303C156.432 106.064 156.107 105.929 155.768 105.929H69.4679Z" fill="white"/>
<path d="M69.4679 105.929C69.1289 105.929 68.8039 106.064 68.5642 106.303C68.3245 106.542 68.1897 106.867 68.1893 107.205V128.578C68.1897 128.916 68.3245 129.241 68.5642 129.48C68.8039 129.719 69.1289 129.854 69.4679 129.854H155.768C156.107 129.854 156.432 129.719 156.672 129.48C156.912 129.241 157.046 128.916 157.047 128.578V107.205C157.046 106.867 156.912 106.542 156.672 106.303C156.432 106.064 156.107 105.929 155.768 105.929H69.4679Z" fill="#E6E6E6"/>
<path d="M69.6276 128.418H155.608V107.365H69.6276V128.418Z" fill="white"/>
<path d="M80.6549 124.593C84.362 124.593 87.3672 121.593 87.3672 117.892C87.3672 114.191 84.362 111.19 80.6549 111.19C76.9479 111.19 73.9427 114.191 73.9427 117.892C73.9427 121.593 76.9479 124.593 80.6549 124.593Z" fill="#183A5A"/>
<path d="M96.1571 113.424C95.8604 113.424 95.5758 113.542 95.366 113.751C95.1562 113.961 95.0383 114.245 95.0383 114.541C95.0383 114.837 95.1562 115.121 95.366 115.331C95.5758 115.54 95.8604 115.658 96.1571 115.658H148.896C149.193 115.658 149.477 115.54 149.687 115.331C149.897 115.121 150.015 114.837 150.015 114.541C150.015 114.245 149.897 113.961 149.687 113.751C149.477 113.542 149.193 113.424 148.896 113.424H96.1571Z" fill="#E6E6E6"/>
<path d="M96.157 120.125C95.8607 120.126 95.5766 120.244 95.3673 120.453C95.1579 120.663 95.0403 120.946 95.0403 121.242C95.0403 121.538 95.1579 121.822 95.3673 122.031C95.5766 122.241 95.8607 122.359 96.157 122.359H148.896C149.043 122.359 149.189 122.331 149.325 122.275C149.461 122.219 149.584 122.136 149.688 122.033C149.793 121.929 149.875 121.806 149.931 121.67C149.988 121.534 150.017 121.389 150.017 121.242C150.017 121.095 149.988 120.95 149.931 120.814C149.875 120.679 149.793 120.555 149.688 120.452C149.584 120.348 149.461 120.266 149.325 120.21C149.189 120.154 149.043 120.125 148.896 120.125H96.157Z" fill="#E6E6E6"/>
<path d="M69.4679 144.12C69.1289 144.121 68.8039 144.255 68.5642 144.495C68.3245 144.734 68.1897 145.058 68.1893 145.397V166.769C68.1897 167.108 68.3245 167.432 68.5642 167.672C68.8039 167.911 69.1289 168.046 69.4679 168.046H155.768C156.107 168.046 156.432 167.911 156.672 167.672C156.912 167.432 157.046 167.108 157.047 166.769V145.397C157.046 145.058 156.912 144.734 156.672 144.495C156.432 144.255 156.107 144.121 155.768 144.12H69.4679Z" fill="white"/>
<path d="M69.4679 144.12C69.1289 144.121 68.8039 144.255 68.5642 144.495C68.3245 144.734 68.1897 145.058 68.1893 145.397V166.769C68.1897 167.108 68.3245 167.432 68.5642 167.672C68.8039 167.911 69.1289 168.046 69.4679 168.046H155.768C156.107 168.046 156.432 167.911 156.672 167.672C156.912 167.432 157.046 167.108 157.047 166.769V145.397C157.046 145.058 156.912 144.734 156.672 144.495C156.432 144.255 156.107 144.121 155.768 144.12H69.4679Z" fill="#E6E6E6"/>
<path d="M69.6276 166.61H155.608V145.556H69.6276V166.61Z" fill="white"/>
<path d="M80.6549 162.784C84.362 162.784 87.3672 159.784 87.3672 156.083C87.3672 152.382 84.362 149.382 80.6549 149.382C76.9479 149.382 73.9427 152.382 73.9427 156.083C73.9427 159.784 76.9479 162.784 80.6549 162.784Z" fill="#183A5A"/>
<path d="M96.1571 151.616C95.8604 151.616 95.5758 151.733 95.366 151.943C95.1562 152.152 95.0383 152.436 95.0383 152.732C95.0383 153.029 95.1562 153.313 95.366 153.522C95.5758 153.732 95.8604 153.849 96.1571 153.849H148.896C149.193 153.849 149.477 153.732 149.687 153.522C149.897 153.313 150.015 153.029 150.015 152.732C150.015 152.436 149.897 152.152 149.687 151.943C149.477 151.733 149.193 151.616 148.896 151.616H96.1571Z" fill="#E6E6E6"/>
<path d="M96.157 158.317C95.8607 158.317 95.5766 158.435 95.3673 158.645C95.1579 158.854 95.0403 159.138 95.0403 159.434C95.0403 159.73 95.1579 160.013 95.3673 160.223C95.5766 160.432 95.8607 160.55 96.157 160.551H148.896C149.193 160.551 149.477 160.433 149.687 160.224C149.897 160.014 150.015 159.73 150.015 159.434C150.015 159.138 149.897 158.853 149.687 158.644C149.477 158.435 149.193 158.317 148.896 158.317H96.157Z" fill="#E6E6E6"/>
</svg>
