<?xml version="1.0" encoding="UTF-8"?>
<svg width="50px" height="45px" viewBox="0 0 50 45" version="1.1" xmlns="http://www.w3.org/2000/svg" xmlns:xlink="http://www.w3.org/1999/xlink">
    <!-- Generator: Sketch 43.2 (39069) - http://www.bohemiancoding.com/sketch -->
    <title>Icon_react_white</title>
    <desc>Created with Sketch.</desc>
    <defs></defs>
    <g id="Page-1" stroke="none" stroke-width="1" fill="none" fill-rule="evenodd">
        <g id="Artboard-2" transform="translate(-2574.000000, -522.000000)" fill="#FFFFFF">
            <g id="Icon_reactjs_white" transform="translate(2574.000000, 519.000000)">
                <g id="Group" transform="translate(0.000000, 3.000000)">
                    <g id="Group-2" fill-rule="nonzero">
                        <circle id="Oval" cx="25.0025755" cy="22.1694494" r="4.4553286"></circle>
                        <path d="M25.0025755,14.1765542 C19.1743738,14.1765542 13.5722479,15.0104006 9.41328229,16.4603079 C4.89578555,18.035326 2.18721137,20.3526751 2.18721137,22.1694494 C2.18721137,23.0231487 2.81196918,24.0753091 4.04944339,25.1350561 C5.42656308,26.3143926 7.43570292,27.3950817 9.86858635,28.2266445 C13.7546858,29.5549642 19.0744323,30.2511545 25.0025755,30.2511545 C30.6456038,30.2511545 35.9060144,29.5411288 39.8377281,28.2384521 C44.7763679,26.6021363 47.8179396,24.0981811 47.8179396,22.1694494 C47.8179396,20.3587656 45.0016043,18.0087753 40.3845323,16.4193115 C36.2273057,14.9881308 30.7590198,14.1765542 25.0025755,14.1765542 Z M25.0025755,12.0451155 C30.9834869,12.0451155 36.6840678,12.8911681 41.0783403,14.403955 C46.4670835,16.2590729 49.9493783,19.1647493 49.9493783,22.1694494 C49.9493783,25.3029046 46.2279019,28.3665872 40.5080943,30.2617267 C36.3400751,31.6426975 30.8583643,32.3825933 25.0025755,32.3825933 C18.8582546,32.3825933 13.3148308,31.6571305 9.17920407,30.243519 C3.67725014,28.362944 0.0557726465,25.2615865 0.0557726465,22.1694494 C0.0557726465,19.1755713 3.42923963,16.2893661 8.71160809,14.4476767 C13.111188,12.9138859 18.9479482,12.0451155 25.0025755,12.0451155 Z" id="Shape"></path>
                        <path d="M18.0400758,18.1986581 C15.1283718,23.2476512 13.0520737,28.5170794 12.2304941,32.8440948 C11.3380414,37.5443024 11.9923418,41.0482873 13.5661336,41.9559162 C14.3057153,42.3824078 15.5292987,42.3668367 17.0655272,41.8242838 C18.7751239,41.2205022 20.7149922,40.0199348 22.6507559,38.3278051 C25.7429005,35.6249375 29.00354,31.3644642 31.9650712,26.2290576 C34.784133,21.3406656 36.7970081,16.4290005 37.6327544,12.3722657 C38.6824963,7.27670924 38.032838,3.39089215 36.3620151,2.4273852 C34.7934727,1.52285096 31.35078,2.78858468 27.667297,5.99414899 C24.3506672,8.88050427 20.9157997,13.2120987 18.0400758,18.1986581 Z M16.19367,17.1338498 C19.1815316,11.9528415 22.7623095,7.43724447 26.2680558,4.38630727 C30.567177,0.644981579 34.8239172,-0.92004328 37.4267909,0.580960651 C40.14126,2.14630303 40.9361441,6.90076262 39.7203532,12.802338 C38.8343797,17.1028772 36.7368287,22.221162 33.8114815,27.2938581 C30.7419505,32.6165404 27.3442064,37.0561596 24.0535219,39.9325726 C19.6758437,43.7592789 15.1800669,45.3470611 12.5013282,43.8023236 C9.90783656,42.3066187 9.09291813,37.9424738 10.136468,32.4464944 C11.0055802,27.8691393 13.1688452,22.3789983 16.19367,17.1338498 Z" id="Shape"></path>
                        <path d="M18.046738,26.24066 C20.9669218,31.2847619 24.4952726,35.7152536 27.8336779,38.5880228 C31.4600314,41.7085891 34.8225839,42.8916624 36.3949267,41.9814125 C37.1337873,41.5536806 37.7313767,40.4858561 38.0285466,38.8839754 C38.3592538,37.101313 38.2879231,34.8210962 37.7886673,32.2989417 C36.9912039,28.2701482 34.9284392,23.3174694 31.9583261,18.187052 C29.1310169,13.3032693 25.8810505,9.10651766 22.7837881,6.35650032 C18.893528,2.90223092 15.2025263,1.52443342 13.5333064,2.49079484 C11.966261,3.39795007 11.3434993,7.0127499 12.2811455,11.8048659 C13.1253896,16.1197542 15.1627166,21.2588733 18.046738,26.24066 Z M16.2021144,27.3085527 C13.2056251,22.1324918 11.0817527,16.7750635 10.1893708,12.2141454 C9.09500914,6.621089 9.86503133,2.15152037 12.4654263,0.64616397 C15.1772432,-0.923788176 19.6933545,0.762010772 24.1989645,4.76266634 C27.4823576,7.67794661 30.8690479,12.0512528 33.802951,17.1191616 C36.8813719,22.4366641 39.0308699,27.5975889 39.8795373,31.8850653 C41.0085978,37.5888845 40.1389245,42.2768188 37.4628036,43.8260453 C34.8717524,45.3260388 30.683739,43.8525371 26.4434106,40.2036303 C22.9118716,37.1646655 19.2357456,32.5486149 16.2021144,27.3085527 Z" id="Shape"></path>
                    </g>
                </g>
            </g>
        </g>
    </g>
</svg>