<?xml version="1.0" encoding="UTF-8"?>
<svg width="90px" height="80px" viewBox="0 0 90 80" version="1.1" xmlns="http://www.w3.org/2000/svg" xmlns:xlink="http://www.w3.org/1999/xlink">
    <!-- Generator: Sketch 43.2 (39069) - http://www.bohemiancoding.com/sketch -->
    <title>Icon_React.js</title>
    <desc>Created with Sketch.</desc>
    <defs></defs>
    <g id="Page-1" stroke="none" stroke-width="1" fill="none" fill-rule="evenodd">
        <g id="Artboard-2" transform="translate(-1847.000000, -741.000000)" fill="#000000">
            <g id="Icon_React.js" transform="translate(1847.000000, 741.000000)">
                <g id="Group">
                    <circle id="Oval" fill-rule="nonzero" cx="45.0046359" cy="39.9050089" r="8.01959147"></circle>
                    <path d="M45.0046359,25.5177975 C34.5138728,25.5177975 24.4300463,27.018721 16.9439081,29.6285543 C8.81241399,32.4635868 3.93698046,36.6348153 3.93698046,39.9050089 C3.93698046,41.4416676 5.06154452,43.3355564 7.28899809,45.243101 C9.76781354,47.3659066 13.3842653,49.3111471 17.7634554,50.80796 C24.7584344,53.1989356 34.3339781,54.4520782 45.0046359,54.4520782 C55.1620868,54.4520782 64.630826,53.1740319 71.7079106,50.8292137 C80.5974622,47.8838453 86.0722913,43.376726 86.0722913,39.9050089 C86.0722913,36.6457782 81.0028877,32.4157955 72.6921582,29.5547607 C65.2091503,26.9786354 55.3662356,25.5177975 45.0046359,25.5177975 Z M45.0046359,21.6812078 C55.7702765,21.6812078 66.031322,23.2041026 73.9410125,25.9271191 C83.6407503,29.2663311 89.908881,34.4965487 89.908881,39.9050089 C89.908881,45.5452283 83.2102234,51.0598569 72.9145698,54.4711081 C65.4121351,56.9568555 55.5450558,58.2886679 45.0046359,58.2886679 C33.9448583,58.2886679 23.9666954,56.9828349 16.5225673,54.4383343 C6.61905025,51.0532992 0.100390764,45.4708557 0.100390764,39.9050089 C0.100390764,34.5160283 6.17263133,29.320859 15.6808946,26.0058181 C23.6001384,23.2449946 34.1063068,21.6812078 45.0046359,21.6812078 Z" id="Shape" fill-rule="nonzero"></path>
                    <path d="M32.4721364,32.7575846 C27.2310692,41.8457722 23.4937327,51.330743 22.0148893,59.1193706 C20.4084746,67.5797443 21.5862153,73.8869171 24.4190404,75.5206491 C25.7502875,76.288334 27.9527376,76.260306 30.717949,75.2837109 C33.795223,74.196904 37.286986,72.0358826 40.7713606,68.9900493 C46.3372209,64.1248874 52.206372,56.4560355 57.5371281,47.2123036 C62.6114394,38.4131981 66.2346146,29.5722009 67.738958,22.2700783 C69.6284934,13.0980766 68.4591084,6.10360587 65.4516272,4.36929337 C62.6282508,2.74113172 56.431404,5.01945243 49.8011346,10.7894682 C43.8312009,15.9849077 37.6484394,23.7817776 32.4721364,32.7575846 Z M29.1486061,30.8409296 C34.5267569,21.5151147 40.972157,13.3870401 47.2825004,7.89535308 C55.0209186,1.16096684 62.6830509,-1.6560779 67.3682236,1.04572917 C72.254268,3.86334545 73.6850594,12.4213727 71.4966358,23.0442083 C69.9018834,30.7851789 66.1262916,39.9980916 60.8606666,49.1289445 C55.3355109,58.7097727 49.2195715,66.7010873 43.2963395,71.8786306 C35.4165187,78.7667019 27.3241205,81.62471 22.5023907,78.8441826 C17.8341058,76.1519137 16.3672526,68.2964528 18.2456425,58.40369 C19.8100444,50.1644508 23.7039213,40.2821969 29.1486061,30.8409296 Z" id="Shape" fill-rule="nonzero"></path>
                    <path d="M32.4841284,47.233188 C37.7404593,56.3125715 44.0914907,64.2874564 50.1006203,69.4584411 C56.6280566,75.0754603 62.6806511,77.2049923 65.5108681,75.5665425 C66.8408171,74.7966251 67.916478,72.874541 68.4513838,69.9911557 C69.0466569,66.7823634 68.9182616,62.6779731 68.0196012,58.1380951 C66.584167,50.8862667 62.8711906,41.9714449 57.524987,32.7366937 C52.4358304,23.9458847 46.5858908,16.3917318 41.0108185,11.4417006 C34.0083504,5.22401565 27.3645473,2.74398015 24.3599515,4.48343072 C21.5392698,6.11631013 20.4182987,12.6229498 22.1060619,21.2487587 C23.6257012,29.0155575 27.2928899,38.2659719 32.4841284,47.233188 Z M29.1638059,49.1553948 C23.7701253,39.8384852 19.9471548,30.1951143 18.3408674,21.9854617 C16.3710165,11.9179602 17.7570564,3.87273666 22.4377673,1.16309515 C27.3190378,-1.66281872 35.4480381,1.37161939 43.558136,8.57279941 C49.4682436,13.8203039 55.5642863,21.692255 60.8453118,30.8144909 C66.3864694,40.3859954 70.2555659,49.6756601 71.7831672,57.3931176 C73.815476,67.6599921 72.2500641,76.0982739 67.4330465,78.8868815 C62.7691543,81.5868699 55.2307301,78.9345667 47.598139,72.3665346 C41.2413689,66.8963979 34.6243421,58.5875068 29.1638059,49.1553948 Z" id="Shape" fill-rule="nonzero"></path>
                </g>
            </g>
        </g>
    </g>
</svg>